<?xml version="1.0" encoding="UTF-8" ?>
<svg version="1.1" width="40" height="40" xmlns="http://www.w3.org/2000/svg" shape-rendering="crispEdges">
<rect x="15" y="4" width="1" height="1" fill="#D95763" />
<rect x="16" y="4" width="1" height="1" fill="#D95763" />
<rect x="17" y="4" width="1" height="1" fill="#D95763" />
<rect x="18" y="4" width="1" height="1" fill="#D95763" />
<rect x="19" y="4" width="1" height="1" fill="#D95763" />
<rect x="20" y="4" width="1" height="1" fill="#D95763" />
<rect x="21" y="4" width="1" height="1" fill="#D95763" />
<rect x="22" y="4" width="1" height="1" fill="#D95763" />
<rect x="23" y="4" width="1" height="1" fill="#D95763" />
<rect x="24" y="4" width="1" height="1" fill="#D95763" />
<rect x="15" y="5" width="1" height="1" fill="#D95763" />
<rect x="16" y="5" width="1" height="1" fill="#D95763" />
<rect x="17" y="5" width="1" height="1" fill="#D95763" />
<rect x="18" y="5" width="1" height="1" fill="#D95763" />
<rect x="19" y="5" width="1" height="1" fill="#D95763" />
<rect x="20" y="5" width="1" height="1" fill="#D95763" />
<rect x="21" y="5" width="1" height="1" fill="#D95763" />
<rect x="22" y="5" width="1" height="1" fill="#D95763" />
<rect x="23" y="5" width="1" height="1" fill="#D95763" />
<rect x="24" y="5" width="1" height="1" fill="#D95763" />
<rect x="15" y="6" width="1" height="1" fill="#D95763" />
<rect x="16" y="6" width="1" height="1" fill="#D95763" />
<rect x="17" y="6" width="1" height="1" fill="#D95763" />
<rect x="18" y="6" width="1" height="1" fill="#D95763" />
<rect x="19" y="6" width="1" height="1" fill="#D95763" />
<rect x="20" y="6" width="1" height="1" fill="#D95763" />
<rect x="21" y="6" width="1" height="1" fill="#D95763" />
<rect x="22" y="6" width="1" height="1" fill="#D95763" />
<rect x="23" y="6" width="1" height="1" fill="#D95763" />
<rect x="24" y="6" width="1" height="1" fill="#D95763" />
<rect x="25" y="6" width="1" height="1" fill="#D95763" />
<rect x="14" y="7" width="1" height="1" fill="#D95763" />
<rect x="15" y="7" width="1" height="1" fill="#D95763" />
<rect x="16" y="7" width="1" height="1" fill="#D95763" />
<rect x="17" y="7" width="1" height="1" fill="#D95763" />
<rect x="23" y="7" width="1" height="1" fill="#D95763" />
<rect x="24" y="7" width="1" height="1" fill="#D95763" />
<rect x="25" y="7" width="1" height="1" fill="#D95763" />
<rect x="14" y="8" width="1" height="1" fill="#D95763" />
<rect x="15" y="8" width="1" height="1" fill="#D95763" />
<rect x="16" y="8" width="1" height="1" fill="#D95763" />
<rect x="24" y="8" width="1" height="1" fill="#D95763" />
<rect x="25" y="8" width="1" height="1" fill="#D95763" />
<rect x="26" y="8" width="1" height="1" fill="#D95763" />
<rect x="13" y="9" width="1" height="1" fill="#D95763" />
<rect x="14" y="9" width="1" height="1" fill="#D95763" />
<rect x="15" y="9" width="1" height="1" fill="#D95763" />
<rect x="16" y="9" width="1" height="1" fill="#D95763" />
<rect x="24" y="9" width="1" height="1" fill="#D95763" />
<rect x="25" y="9" width="1" height="1" fill="#D95763" />
<rect x="26" y="9" width="1" height="1" fill="#D95763" />
<rect x="7" y="10" width="1" height="1" fill="#D95763" />
<rect x="8" y="10" width="1" height="1" fill="#D95763" />
<rect x="9" y="10" width="1" height="1" fill="#D95763" />
<rect x="10" y="10" width="1" height="1" fill="#D95763" />
<rect x="11" y="10" width="1" height="1" fill="#D95763" />
<rect x="12" y="10" width="1" height="1" fill="#D95763" />
<rect x="13" y="10" width="1" height="1" fill="#D95763" />
<rect x="14" y="10" width="1" height="1" fill="#D95763" />
<rect x="15" y="10" width="1" height="1" fill="#D95763" />
<rect x="16" y="10" width="1" height="1" fill="#D95763" />
<rect x="17" y="10" width="1" height="1" fill="#D95763" />
<rect x="18" y="10" width="1" height="1" fill="#D95763" />
<rect x="19" y="10" width="1" height="1" fill="#D95763" />
<rect x="20" y="10" width="1" height="1" fill="#D95763" />
<rect x="21" y="10" width="1" height="1" fill="#D95763" />
<rect x="22" y="10" width="1" height="1" fill="#D95763" />
<rect x="23" y="10" width="1" height="1" fill="#D95763" />
<rect x="24" y="10" width="1" height="1" fill="#D95763" />
<rect x="25" y="10" width="1" height="1" fill="#D95763" />
<rect x="26" y="10" width="1" height="1" fill="#D95763" />
<rect x="27" y="10" width="1" height="1" fill="#D95763" />
<rect x="28" y="10" width="1" height="1" fill="#D95763" />
<rect x="29" y="10" width="1" height="1" fill="#D95763" />
<rect x="30" y="10" width="1" height="1" fill="#D95763" />
<rect x="31" y="10" width="1" height="1" fill="#D95763" />
<rect x="32" y="10" width="1" height="1" fill="#D95763" />
<rect x="7" y="11" width="1" height="1" fill="#D95763" />
<rect x="8" y="11" width="1" height="1" fill="#D95763" />
<rect x="9" y="11" width="1" height="1" fill="#D95763" />
<rect x="10" y="11" width="1" height="1" fill="#D95763" />
<rect x="11" y="11" width="1" height="1" fill="#D95763" />
<rect x="12" y="11" width="1" height="1" fill="#D95763" />
<rect x="13" y="11" width="1" height="1" fill="#D95763" />
<rect x="14" y="11" width="1" height="1" fill="#D95763" />
<rect x="15" y="11" width="1" height="1" fill="#D95763" />
<rect x="16" y="11" width="1" height="1" fill="#D95763" />
<rect x="17" y="11" width="1" height="1" fill="#D95763" />
<rect x="18" y="11" width="1" height="1" fill="#D95763" />
<rect x="19" y="11" width="1" height="1" fill="#D95763" />
<rect x="20" y="11" width="1" height="1" fill="#D95763" />
<rect x="21" y="11" width="1" height="1" fill="#D95763" />
<rect x="22" y="11" width="1" height="1" fill="#D95763" />
<rect x="23" y="11" width="1" height="1" fill="#D95763" />
<rect x="24" y="11" width="1" height="1" fill="#D95763" />
<rect x="25" y="11" width="1" height="1" fill="#D95763" />
<rect x="26" y="11" width="1" height="1" fill="#D95763" />
<rect x="27" y="11" width="1" height="1" fill="#D95763" />
<rect x="28" y="11" width="1" height="1" fill="#D95763" />
<rect x="29" y="11" width="1" height="1" fill="#D95763" />
<rect x="30" y="11" width="1" height="1" fill="#D95763" />
<rect x="31" y="11" width="1" height="1" fill="#D95763" />
<rect x="32" y="11" width="1" height="1" fill="#D95763" />
<rect x="7" y="12" width="1" height="1" fill="#D95763" />
<rect x="8" y="12" width="1" height="1" fill="#D95763" />
<rect x="9" y="12" width="1" height="1" fill="#D95763" />
<rect x="10" y="12" width="1" height="1" fill="#D95763" />
<rect x="11" y="12" width="1" height="1" fill="#D95763" />
<rect x="12" y="12" width="1" height="1" fill="#D95763" />
<rect x="13" y="12" width="1" height="1" fill="#D95763" />
<rect x="14" y="12" width="1" height="1" fill="#D95763" />
<rect x="15" y="12" width="1" height="1" fill="#D95763" />
<rect x="16" y="12" width="1" height="1" fill="#D95763" />
<rect x="17" y="12" width="1" height="1" fill="#D95763" />
<rect x="18" y="12" width="1" height="1" fill="#D95763" />
<rect x="19" y="12" width="1" height="1" fill="#D95763" />
<rect x="20" y="12" width="1" height="1" fill="#D95763" />
<rect x="21" y="12" width="1" height="1" fill="#D95763" />
<rect x="22" y="12" width="1" height="1" fill="#D95763" />
<rect x="23" y="12" width="1" height="1" fill="#D95763" />
<rect x="24" y="12" width="1" height="1" fill="#D95763" />
<rect x="25" y="12" width="1" height="1" fill="#D95763" />
<rect x="26" y="12" width="1" height="1" fill="#D95763" />
<rect x="27" y="12" width="1" height="1" fill="#D95763" />
<rect x="28" y="12" width="1" height="1" fill="#D95763" />
<rect x="29" y="12" width="1" height="1" fill="#D95763" />
<rect x="30" y="12" width="1" height="1" fill="#D95763" />
<rect x="31" y="12" width="1" height="1" fill="#D95763" />
<rect x="32" y="12" width="1" height="1" fill="#D95763" />
<rect x="7" y="13" width="1" height="1" fill="#D95763" />
<rect x="8" y="13" width="1" height="1" fill="#D95763" />
<rect x="9" y="13" width="1" height="1" fill="#D95763" />
<rect x="10" y="13" width="1" height="1" fill="#D95763" />
<rect x="11" y="13" width="1" height="1" fill="#D95763" />
<rect x="12" y="13" width="1" height="1" fill="#D95763" />
<rect x="13" y="13" width="1" height="1" fill="#D95763" />
<rect x="14" y="13" width="1" height="1" fill="#D95763" />
<rect x="15" y="13" width="1" height="1" fill="#D95763" />
<rect x="16" y="13" width="1" height="1" fill="#D95763" />
<rect x="17" y="13" width="1" height="1" fill="#D95763" />
<rect x="18" y="13" width="1" height="1" fill="#D95763" />
<rect x="19" y="13" width="1" height="1" fill="#D95763" />
<rect x="20" y="13" width="1" height="1" fill="#D95763" />
<rect x="21" y="13" width="1" height="1" fill="#D95763" />
<rect x="22" y="13" width="1" height="1" fill="#D95763" />
<rect x="23" y="13" width="1" height="1" fill="#D95763" />
<rect x="24" y="13" width="1" height="1" fill="#D95763" />
<rect x="25" y="13" width="1" height="1" fill="#D95763" />
<rect x="26" y="13" width="1" height="1" fill="#D95763" />
<rect x="27" y="13" width="1" height="1" fill="#D95763" />
<rect x="28" y="13" width="1" height="1" fill="#D95763" />
<rect x="29" y="13" width="1" height="1" fill="#D95763" />
<rect x="30" y="13" width="1" height="1" fill="#D95763" />
<rect x="31" y="13" width="1" height="1" fill="#D95763" />
<rect x="32" y="13" width="1" height="1" fill="#D95763" />
<rect x="9" y="14" width="1" height="1" fill="#D95763" />
<rect x="10" y="14" width="1" height="1" fill="#D95763" />
<rect x="11" y="14" width="1" height="1" fill="#D95763" />
<rect x="28" y="14" width="1" height="1" fill="#D95763" />
<rect x="29" y="14" width="1" height="1" fill="#D95763" />
<rect x="30" y="14" width="1" height="1" fill="#D95763" />
<rect x="9" y="15" width="1" height="1" fill="#D95763" />
<rect x="10" y="15" width="1" height="1" fill="#D95763" />
<rect x="11" y="15" width="1" height="1" fill="#D95763" />
<rect x="28" y="15" width="1" height="1" fill="#D95763" />
<rect x="29" y="15" width="1" height="1" fill="#D95763" />
<rect x="30" y="15" width="1" height="1" fill="#D95763" />
<rect x="9" y="16" width="1" height="1" fill="#D95763" />
<rect x="10" y="16" width="1" height="1" fill="#D95763" />
<rect x="11" y="16" width="1" height="1" fill="#D95763" />
<rect x="15" y="16" width="1" height="1" fill="#D95763" />
<rect x="16" y="16" width="1" height="1" fill="#D95763" />
<rect x="17" y="16" width="1" height="1" fill="#D95763" />
<rect x="22" y="16" width="1" height="1" fill="#D95763" />
<rect x="23" y="16" width="1" height="1" fill="#D95763" />
<rect x="24" y="16" width="1" height="1" fill="#D95763" />
<rect x="28" y="16" width="1" height="1" fill="#D95763" />
<rect x="29" y="16" width="1" height="1" fill="#D95763" />
<rect x="30" y="16" width="1" height="1" fill="#D95763" />
<rect x="9" y="17" width="1" height="1" fill="#D95763" />
<rect x="10" y="17" width="1" height="1" fill="#D95763" />
<rect x="11" y="17" width="1" height="1" fill="#D95763" />
<rect x="15" y="17" width="1" height="1" fill="#D95763" />
<rect x="16" y="17" width="1" height="1" fill="#D95763" />
<rect x="17" y="17" width="1" height="1" fill="#D95763" />
<rect x="22" y="17" width="1" height="1" fill="#D95763" />
<rect x="23" y="17" width="1" height="1" fill="#D95763" />
<rect x="24" y="17" width="1" height="1" fill="#D95763" />
<rect x="28" y="17" width="1" height="1" fill="#D95763" />
<rect x="29" y="17" width="1" height="1" fill="#D95763" />
<rect x="30" y="17" width="1" height="1" fill="#D95763" />
<rect x="9" y="18" width="1" height="1" fill="#D95763" />
<rect x="10" y="18" width="1" height="1" fill="#D95763" />
<rect x="11" y="18" width="1" height="1" fill="#D95763" />
<rect x="15" y="18" width="1" height="1" fill="#D95763" />
<rect x="16" y="18" width="1" height="1" fill="#D95763" />
<rect x="17" y="18" width="1" height="1" fill="#D95763" />
<rect x="22" y="18" width="1" height="1" fill="#D95763" />
<rect x="23" y="18" width="1" height="1" fill="#D95763" />
<rect x="24" y="18" width="1" height="1" fill="#D95763" />
<rect x="28" y="18" width="1" height="1" fill="#D95763" />
<rect x="29" y="18" width="1" height="1" fill="#D95763" />
<rect x="30" y="18" width="1" height="1" fill="#D95763" />
<rect x="9" y="19" width="1" height="1" fill="#D95763" />
<rect x="10" y="19" width="1" height="1" fill="#D95763" />
<rect x="11" y="19" width="1" height="1" fill="#D95763" />
<rect x="15" y="19" width="1" height="1" fill="#D95763" />
<rect x="16" y="19" width="1" height="1" fill="#D95763" />
<rect x="17" y="19" width="1" height="1" fill="#D95763" />
<rect x="22" y="19" width="1" height="1" fill="#D95763" />
<rect x="23" y="19" width="1" height="1" fill="#D95763" />
<rect x="24" y="19" width="1" height="1" fill="#D95763" />
<rect x="28" y="19" width="1" height="1" fill="#D95763" />
<rect x="29" y="19" width="1" height="1" fill="#D95763" />
<rect x="30" y="19" width="1" height="1" fill="#D95763" />
<rect x="9" y="20" width="1" height="1" fill="#D95763" />
<rect x="10" y="20" width="1" height="1" fill="#D95763" />
<rect x="11" y="20" width="1" height="1" fill="#D95763" />
<rect x="15" y="20" width="1" height="1" fill="#D95763" />
<rect x="16" y="20" width="1" height="1" fill="#D95763" />
<rect x="17" y="20" width="1" height="1" fill="#D95763" />
<rect x="22" y="20" width="1" height="1" fill="#D95763" />
<rect x="23" y="20" width="1" height="1" fill="#D95763" />
<rect x="24" y="20" width="1" height="1" fill="#D95763" />
<rect x="28" y="20" width="1" height="1" fill="#D95763" />
<rect x="29" y="20" width="1" height="1" fill="#D95763" />
<rect x="30" y="20" width="1" height="1" fill="#D95763" />
<rect x="9" y="21" width="1" height="1" fill="#D95763" />
<rect x="10" y="21" width="1" height="1" fill="#D95763" />
<rect x="11" y="21" width="1" height="1" fill="#D95763" />
<rect x="15" y="21" width="1" height="1" fill="#D95763" />
<rect x="16" y="21" width="1" height="1" fill="#D95763" />
<rect x="17" y="21" width="1" height="1" fill="#D95763" />
<rect x="22" y="21" width="1" height="1" fill="#D95763" />
<rect x="23" y="21" width="1" height="1" fill="#D95763" />
<rect x="24" y="21" width="1" height="1" fill="#D95763" />
<rect x="28" y="21" width="1" height="1" fill="#D95763" />
<rect x="29" y="21" width="1" height="1" fill="#D95763" />
<rect x="30" y="21" width="1" height="1" fill="#D95763" />
<rect x="9" y="22" width="1" height="1" fill="#D95763" />
<rect x="10" y="22" width="1" height="1" fill="#D95763" />
<rect x="11" y="22" width="1" height="1" fill="#D95763" />
<rect x="15" y="22" width="1" height="1" fill="#D95763" />
<rect x="16" y="22" width="1" height="1" fill="#D95763" />
<rect x="17" y="22" width="1" height="1" fill="#D95763" />
<rect x="22" y="22" width="1" height="1" fill="#D95763" />
<rect x="23" y="22" width="1" height="1" fill="#D95763" />
<rect x="24" y="22" width="1" height="1" fill="#D95763" />
<rect x="28" y="22" width="1" height="1" fill="#D95763" />
<rect x="29" y="22" width="1" height="1" fill="#D95763" />
<rect x="30" y="22" width="1" height="1" fill="#D95763" />
<rect x="9" y="23" width="1" height="1" fill="#D95763" />
<rect x="10" y="23" width="1" height="1" fill="#D95763" />
<rect x="11" y="23" width="1" height="1" fill="#D95763" />
<rect x="15" y="23" width="1" height="1" fill="#D95763" />
<rect x="16" y="23" width="1" height="1" fill="#D95763" />
<rect x="17" y="23" width="1" height="1" fill="#D95763" />
<rect x="22" y="23" width="1" height="1" fill="#D95763" />
<rect x="23" y="23" width="1" height="1" fill="#D95763" />
<rect x="24" y="23" width="1" height="1" fill="#D95763" />
<rect x="28" y="23" width="1" height="1" fill="#D95763" />
<rect x="29" y="23" width="1" height="1" fill="#D95763" />
<rect x="30" y="23" width="1" height="1" fill="#D95763" />
<rect x="9" y="24" width="1" height="1" fill="#D95763" />
<rect x="10" y="24" width="1" height="1" fill="#D95763" />
<rect x="11" y="24" width="1" height="1" fill="#D95763" />
<rect x="15" y="24" width="1" height="1" fill="#D95763" />
<rect x="16" y="24" width="1" height="1" fill="#D95763" />
<rect x="17" y="24" width="1" height="1" fill="#D95763" />
<rect x="22" y="24" width="1" height="1" fill="#D95763" />
<rect x="23" y="24" width="1" height="1" fill="#D95763" />
<rect x="24" y="24" width="1" height="1" fill="#D95763" />
<rect x="28" y="24" width="1" height="1" fill="#D95763" />
<rect x="29" y="24" width="1" height="1" fill="#D95763" />
<rect x="30" y="24" width="1" height="1" fill="#D95763" />
<rect x="9" y="25" width="1" height="1" fill="#D95763" />
<rect x="10" y="25" width="1" height="1" fill="#D95763" />
<rect x="11" y="25" width="1" height="1" fill="#D95763" />
<rect x="15" y="25" width="1" height="1" fill="#D95763" />
<rect x="16" y="25" width="1" height="1" fill="#D95763" />
<rect x="17" y="25" width="1" height="1" fill="#D95763" />
<rect x="22" y="25" width="1" height="1" fill="#D95763" />
<rect x="23" y="25" width="1" height="1" fill="#D95763" />
<rect x="24" y="25" width="1" height="1" fill="#D95763" />
<rect x="28" y="25" width="1" height="1" fill="#D95763" />
<rect x="29" y="25" width="1" height="1" fill="#D95763" />
<rect x="30" y="25" width="1" height="1" fill="#D95763" />
<rect x="9" y="26" width="1" height="1" fill="#D95763" />
<rect x="10" y="26" width="1" height="1" fill="#D95763" />
<rect x="11" y="26" width="1" height="1" fill="#D95763" />
<rect x="15" y="26" width="1" height="1" fill="#D95763" />
<rect x="16" y="26" width="1" height="1" fill="#D95763" />
<rect x="17" y="26" width="1" height="1" fill="#D95763" />
<rect x="22" y="26" width="1" height="1" fill="#D95763" />
<rect x="23" y="26" width="1" height="1" fill="#D95763" />
<rect x="24" y="26" width="1" height="1" fill="#D95763" />
<rect x="28" y="26" width="1" height="1" fill="#D95763" />
<rect x="29" y="26" width="1" height="1" fill="#D95763" />
<rect x="30" y="26" width="1" height="1" fill="#D95763" />
<rect x="9" y="27" width="1" height="1" fill="#D95763" />
<rect x="10" y="27" width="1" height="1" fill="#D95763" />
<rect x="11" y="27" width="1" height="1" fill="#D95763" />
<rect x="15" y="27" width="1" height="1" fill="#D95763" />
<rect x="16" y="27" width="1" height="1" fill="#D95763" />
<rect x="17" y="27" width="1" height="1" fill="#D95763" />
<rect x="22" y="27" width="1" height="1" fill="#D95763" />
<rect x="23" y="27" width="1" height="1" fill="#D95763" />
<rect x="24" y="27" width="1" height="1" fill="#D95763" />
<rect x="28" y="27" width="1" height="1" fill="#D95763" />
<rect x="29" y="27" width="1" height="1" fill="#D95763" />
<rect x="30" y="27" width="1" height="1" fill="#D95763" />
<rect x="9" y="28" width="1" height="1" fill="#D95763" />
<rect x="10" y="28" width="1" height="1" fill="#D95763" />
<rect x="11" y="28" width="1" height="1" fill="#D95763" />
<rect x="15" y="28" width="1" height="1" fill="#D95763" />
<rect x="16" y="28" width="1" height="1" fill="#D95763" />
<rect x="17" y="28" width="1" height="1" fill="#D95763" />
<rect x="22" y="28" width="1" height="1" fill="#D95763" />
<rect x="23" y="28" width="1" height="1" fill="#D95763" />
<rect x="24" y="28" width="1" height="1" fill="#D95763" />
<rect x="28" y="28" width="1" height="1" fill="#D95763" />
<rect x="29" y="28" width="1" height="1" fill="#D95763" />
<rect x="30" y="28" width="1" height="1" fill="#D95763" />
<rect x="9" y="29" width="1" height="1" fill="#D95763" />
<rect x="10" y="29" width="1" height="1" fill="#D95763" />
<rect x="11" y="29" width="1" height="1" fill="#D95763" />
<rect x="15" y="29" width="1" height="1" fill="#D95763" />
<rect x="16" y="29" width="1" height="1" fill="#D95763" />
<rect x="17" y="29" width="1" height="1" fill="#D95763" />
<rect x="22" y="29" width="1" height="1" fill="#D95763" />
<rect x="23" y="29" width="1" height="1" fill="#D95763" />
<rect x="24" y="29" width="1" height="1" fill="#D95763" />
<rect x="28" y="29" width="1" height="1" fill="#D95763" />
<rect x="29" y="29" width="1" height="1" fill="#D95763" />
<rect x="30" y="29" width="1" height="1" fill="#D95763" />
<rect x="9" y="30" width="1" height="1" fill="#D95763" />
<rect x="10" y="30" width="1" height="1" fill="#D95763" />
<rect x="11" y="30" width="1" height="1" fill="#D95763" />
<rect x="15" y="30" width="1" height="1" fill="#D95763" />
<rect x="16" y="30" width="1" height="1" fill="#D95763" />
<rect x="17" y="30" width="1" height="1" fill="#D95763" />
<rect x="22" y="30" width="1" height="1" fill="#D95763" />
<rect x="23" y="30" width="1" height="1" fill="#D95763" />
<rect x="24" y="30" width="1" height="1" fill="#D95763" />
<rect x="28" y="30" width="1" height="1" fill="#D95763" />
<rect x="29" y="30" width="1" height="1" fill="#D95763" />
<rect x="30" y="30" width="1" height="1" fill="#D95763" />
<rect x="9" y="31" width="1" height="1" fill="#D95763" />
<rect x="10" y="31" width="1" height="1" fill="#D95763" />
<rect x="11" y="31" width="1" height="1" fill="#D95763" />
<rect x="28" y="31" width="1" height="1" fill="#D95763" />
<rect x="29" y="31" width="1" height="1" fill="#D95763" />
<rect x="30" y="31" width="1" height="1" fill="#D95763" />
<rect x="9" y="32" width="1" height="1" fill="#D95763" />
<rect x="10" y="32" width="1" height="1" fill="#D95763" />
<rect x="11" y="32" width="1" height="1" fill="#D95763" />
<rect x="28" y="32" width="1" height="1" fill="#D95763" />
<rect x="29" y="32" width="1" height="1" fill="#D95763" />
<rect x="30" y="32" width="1" height="1" fill="#D95763" />
<rect x="9" y="33" width="1" height="1" fill="#D95763" />
<rect x="10" y="33" width="1" height="1" fill="#D95763" />
<rect x="11" y="33" width="1" height="1" fill="#D95763" />
<rect x="12" y="33" width="1" height="1" fill="#D95763" />
<rect x="13" y="33" width="1" height="1" fill="#D95763" />
<rect x="14" y="33" width="1" height="1" fill="#D95763" />
<rect x="15" y="33" width="1" height="1" fill="#D95763" />
<rect x="16" y="33" width="1" height="1" fill="#D95763" />
<rect x="17" y="33" width="1" height="1" fill="#D95763" />
<rect x="18" y="33" width="1" height="1" fill="#D95763" />
<rect x="19" y="33" width="1" height="1" fill="#D95763" />
<rect x="20" y="33" width="1" height="1" fill="#D95763" />
<rect x="21" y="33" width="1" height="1" fill="#D95763" />
<rect x="22" y="33" width="1" height="1" fill="#D95763" />
<rect x="23" y="33" width="1" height="1" fill="#D95763" />
<rect x="24" y="33" width="1" height="1" fill="#D95763" />
<rect x="25" y="33" width="1" height="1" fill="#D95763" />
<rect x="26" y="33" width="1" height="1" fill="#D95763" />
<rect x="27" y="33" width="1" height="1" fill="#D95763" />
<rect x="28" y="33" width="1" height="1" fill="#D95763" />
<rect x="29" y="33" width="1" height="1" fill="#D95763" />
<rect x="30" y="33" width="1" height="1" fill="#D95763" />
<rect x="9" y="34" width="1" height="1" fill="#D95763" />
<rect x="10" y="34" width="1" height="1" fill="#D95763" />
<rect x="11" y="34" width="1" height="1" fill="#D95763" />
<rect x="12" y="34" width="1" height="1" fill="#D95763" />
<rect x="13" y="34" width="1" height="1" fill="#D95763" />
<rect x="14" y="34" width="1" height="1" fill="#D95763" />
<rect x="15" y="34" width="1" height="1" fill="#D95763" />
<rect x="16" y="34" width="1" height="1" fill="#D95763" />
<rect x="17" y="34" width="1" height="1" fill="#D95763" />
<rect x="18" y="34" width="1" height="1" fill="#D95763" />
<rect x="19" y="34" width="1" height="1" fill="#D95763" />
<rect x="20" y="34" width="1" height="1" fill="#D95763" />
<rect x="21" y="34" width="1" height="1" fill="#D95763" />
<rect x="22" y="34" width="1" height="1" fill="#D95763" />
<rect x="23" y="34" width="1" height="1" fill="#D95763" />
<rect x="24" y="34" width="1" height="1" fill="#D95763" />
<rect x="25" y="34" width="1" height="1" fill="#D95763" />
<rect x="26" y="34" width="1" height="1" fill="#D95763" />
<rect x="27" y="34" width="1" height="1" fill="#D95763" />
<rect x="28" y="34" width="1" height="1" fill="#D95763" />
<rect x="29" y="34" width="1" height="1" fill="#D95763" />
<rect x="30" y="34" width="1" height="1" fill="#D95763" />
<rect x="9" y="35" width="1" height="1" fill="#D95763" />
<rect x="10" y="35" width="1" height="1" fill="#D95763" />
<rect x="11" y="35" width="1" height="1" fill="#D95763" />
<rect x="12" y="35" width="1" height="1" fill="#D95763" />
<rect x="13" y="35" width="1" height="1" fill="#D95763" />
<rect x="14" y="35" width="1" height="1" fill="#D95763" />
<rect x="15" y="35" width="1" height="1" fill="#D95763" />
<rect x="16" y="35" width="1" height="1" fill="#D95763" />
<rect x="17" y="35" width="1" height="1" fill="#D95763" />
<rect x="18" y="35" width="1" height="1" fill="#D95763" />
<rect x="19" y="35" width="1" height="1" fill="#D95763" />
<rect x="20" y="35" width="1" height="1" fill="#D95763" />
<rect x="21" y="35" width="1" height="1" fill="#D95763" />
<rect x="22" y="35" width="1" height="1" fill="#D95763" />
<rect x="23" y="35" width="1" height="1" fill="#D95763" />
<rect x="24" y="35" width="1" height="1" fill="#D95763" />
<rect x="25" y="35" width="1" height="1" fill="#D95763" />
<rect x="26" y="35" width="1" height="1" fill="#D95763" />
<rect x="27" y="35" width="1" height="1" fill="#D95763" />
<rect x="28" y="35" width="1" height="1" fill="#D95763" />
<rect x="29" y="35" width="1" height="1" fill="#D95763" />
<rect x="30" y="35" width="1" height="1" fill="#D95763" />
</svg>