<?xml version="1.0" encoding="UTF-8" ?>
<svg version="1.1" width="40" height="40" xmlns="http://www.w3.org/2000/svg" shape-rendering="crispEdges">
<rect x="15" y="1" width="1" height="1" fill="#59AD43" />
<rect x="16" y="1" width="1" height="1" fill="#59AD43" />
<rect x="17" y="1" width="1" height="1" fill="#59AD43" />
<rect x="18" y="1" width="1" height="1" fill="#59AD43" />
<rect x="19" y="1" width="1" height="1" fill="#59AD43" />
<rect x="20" y="1" width="1" height="1" fill="#59AD43" />
<rect x="21" y="1" width="1" height="1" fill="#59AD43" />
<rect x="22" y="1" width="1" height="1" fill="#59AD43" />
<rect x="23" y="1" width="1" height="1" fill="#59AD43" />
<rect x="15" y="2" width="1" height="1" fill="#59AD43" />
<rect x="16" y="2" width="1" height="1" fill="#59AD43" />
<rect x="17" y="2" width="1" height="1" fill="#59AD43" />
<rect x="18" y="2" width="1" height="1" fill="#59AD43" />
<rect x="19" y="2" width="1" height="1" fill="#59AD43" />
<rect x="20" y="2" width="1" height="1" fill="#59AD43" />
<rect x="21" y="2" width="1" height="1" fill="#59AD43" />
<rect x="22" y="2" width="1" height="1" fill="#59AD43" />
<rect x="23" y="2" width="1" height="1" fill="#59AD43" />
<rect x="15" y="3" width="1" height="1" fill="#59AD43" />
<rect x="16" y="3" width="1" height="1" fill="#59AD43" />
<rect x="17" y="3" width="1" height="1" fill="#59AD43" />
<rect x="18" y="3" width="1" height="1" fill="#59AD43" />
<rect x="19" y="3" width="1" height="1" fill="#59AD43" />
<rect x="20" y="3" width="1" height="1" fill="#59AD43" />
<rect x="21" y="3" width="1" height="1" fill="#59AD43" />
<rect x="22" y="3" width="1" height="1" fill="#59AD43" />
<rect x="23" y="3" width="1" height="1" fill="#59AD43" />
<rect x="15" y="4" width="1" height="1" fill="#59AD43" />
<rect x="16" y="4" width="1" height="1" fill="#59AD43" />
<rect x="17" y="4" width="1" height="1" fill="#59AD43" />
<rect x="18" y="4" width="1" height="1" fill="#59AD43" />
<rect x="19" y="4" width="1" height="1" fill="#59AD43" />
<rect x="20" y="4" width="1" height="1" fill="#59AD43" />
<rect x="21" y="4" width="1" height="1" fill="#59AD43" />
<rect x="22" y="4" width="1" height="1" fill="#59AD43" />
<rect x="23" y="4" width="1" height="1" fill="#59AD43" />
<rect x="15" y="5" width="1" height="1" fill="#59AD43" />
<rect x="16" y="5" width="1" height="1" fill="#59AD43" />
<rect x="17" y="5" width="1" height="1" fill="#59AD43" />
<rect x="18" y="5" width="1" height="1" fill="#59AD43" />
<rect x="19" y="5" width="1" height="1" fill="#59AD43" />
<rect x="20" y="5" width="1" height="1" fill="#59AD43" />
<rect x="21" y="5" width="1" height="1" fill="#59AD43" />
<rect x="22" y="5" width="1" height="1" fill="#59AD43" />
<rect x="23" y="5" width="1" height="1" fill="#59AD43" />
<rect x="15" y="9" width="1" height="1" fill="#59AD43" />
<rect x="16" y="9" width="1" height="1" fill="#59AD43" />
<rect x="17" y="9" width="1" height="1" fill="#59AD43" />
<rect x="18" y="9" width="1" height="1" fill="#59AD43" />
<rect x="19" y="9" width="1" height="1" fill="#59AD43" />
<rect x="20" y="9" width="1" height="1" fill="#59AD43" />
<rect x="21" y="9" width="1" height="1" fill="#59AD43" />
<rect x="22" y="9" width="1" height="1" fill="#59AD43" />
<rect x="23" y="9" width="1" height="1" fill="#59AD43" />
<rect x="15" y="10" width="1" height="1" fill="#59AD43" />
<rect x="16" y="10" width="1" height="1" fill="#59AD43" />
<rect x="17" y="10" width="1" height="1" fill="#59AD43" />
<rect x="18" y="10" width="1" height="1" fill="#59AD43" />
<rect x="19" y="10" width="1" height="1" fill="#59AD43" />
<rect x="20" y="10" width="1" height="1" fill="#59AD43" />
<rect x="21" y="10" width="1" height="1" fill="#59AD43" />
<rect x="22" y="10" width="1" height="1" fill="#59AD43" />
<rect x="23" y="10" width="1" height="1" fill="#59AD43" />
<rect x="15" y="11" width="1" height="1" fill="#59AD43" />
<rect x="16" y="11" width="1" height="1" fill="#59AD43" />
<rect x="17" y="11" width="1" height="1" fill="#59AD43" />
<rect x="18" y="11" width="1" height="1" fill="#59AD43" />
<rect x="19" y="11" width="1" height="1" fill="#59AD43" />
<rect x="20" y="11" width="1" height="1" fill="#59AD43" />
<rect x="21" y="11" width="1" height="1" fill="#59AD43" />
<rect x="22" y="11" width="1" height="1" fill="#59AD43" />
<rect x="23" y="11" width="1" height="1" fill="#59AD43" />
<rect x="15" y="12" width="1" height="1" fill="#59AD43" />
<rect x="16" y="12" width="1" height="1" fill="#59AD43" />
<rect x="17" y="12" width="1" height="1" fill="#59AD43" />
<rect x="18" y="12" width="1" height="1" fill="#59AD43" />
<rect x="19" y="12" width="1" height="1" fill="#59AD43" />
<rect x="20" y="12" width="1" height="1" fill="#59AD43" />
<rect x="21" y="12" width="1" height="1" fill="#59AD43" />
<rect x="22" y="12" width="1" height="1" fill="#59AD43" />
<rect x="23" y="12" width="1" height="1" fill="#59AD43" />
<rect x="15" y="13" width="1" height="1" fill="#59AD43" />
<rect x="16" y="13" width="1" height="1" fill="#59AD43" />
<rect x="17" y="13" width="1" height="1" fill="#59AD43" />
<rect x="18" y="13" width="1" height="1" fill="#59AD43" />
<rect x="19" y="13" width="1" height="1" fill="#59AD43" />
<rect x="20" y="13" width="1" height="1" fill="#59AD43" />
<rect x="21" y="13" width="1" height="1" fill="#59AD43" />
<rect x="22" y="13" width="1" height="1" fill="#59AD43" />
<rect x="23" y="13" width="1" height="1" fill="#59AD43" />
<rect x="15" y="14" width="1" height="1" fill="#59AD43" />
<rect x="16" y="14" width="1" height="1" fill="#59AD43" />
<rect x="17" y="14" width="1" height="1" fill="#59AD43" />
<rect x="18" y="14" width="1" height="1" fill="#59AD43" />
<rect x="19" y="14" width="1" height="1" fill="#59AD43" />
<rect x="20" y="14" width="1" height="1" fill="#59AD43" />
<rect x="21" y="14" width="1" height="1" fill="#59AD43" />
<rect x="22" y="14" width="1" height="1" fill="#59AD43" />
<rect x="23" y="14" width="1" height="1" fill="#59AD43" />
<rect x="15" y="15" width="1" height="1" fill="#59AD43" />
<rect x="16" y="15" width="1" height="1" fill="#59AD43" />
<rect x="17" y="15" width="1" height="1" fill="#59AD43" />
<rect x="18" y="15" width="1" height="1" fill="#59AD43" />
<rect x="19" y="15" width="1" height="1" fill="#59AD43" />
<rect x="20" y="15" width="1" height="1" fill="#59AD43" />
<rect x="21" y="15" width="1" height="1" fill="#59AD43" />
<rect x="22" y="15" width="1" height="1" fill="#59AD43" />
<rect x="23" y="15" width="1" height="1" fill="#59AD43" />
<rect x="15" y="16" width="1" height="1" fill="#59AD43" />
<rect x="16" y="16" width="1" height="1" fill="#59AD43" />
<rect x="17" y="16" width="1" height="1" fill="#59AD43" />
<rect x="18" y="16" width="1" height="1" fill="#59AD43" />
<rect x="19" y="16" width="1" height="1" fill="#59AD43" />
<rect x="20" y="16" width="1" height="1" fill="#59AD43" />
<rect x="21" y="16" width="1" height="1" fill="#59AD43" />
<rect x="22" y="16" width="1" height="1" fill="#59AD43" />
<rect x="23" y="16" width="1" height="1" fill="#59AD43" />
<rect x="15" y="17" width="1" height="1" fill="#59AD43" />
<rect x="16" y="17" width="1" height="1" fill="#59AD43" />
<rect x="17" y="17" width="1" height="1" fill="#59AD43" />
<rect x="18" y="17" width="1" height="1" fill="#59AD43" />
<rect x="19" y="17" width="1" height="1" fill="#59AD43" />
<rect x="20" y="17" width="1" height="1" fill="#59AD43" />
<rect x="21" y="17" width="1" height="1" fill="#59AD43" />
<rect x="22" y="17" width="1" height="1" fill="#59AD43" />
<rect x="23" y="17" width="1" height="1" fill="#59AD43" />
<rect x="15" y="18" width="1" height="1" fill="#59AD43" />
<rect x="16" y="18" width="1" height="1" fill="#59AD43" />
<rect x="17" y="18" width="1" height="1" fill="#59AD43" />
<rect x="18" y="18" width="1" height="1" fill="#59AD43" />
<rect x="19" y="18" width="1" height="1" fill="#59AD43" />
<rect x="20" y="18" width="1" height="1" fill="#59AD43" />
<rect x="21" y="18" width="1" height="1" fill="#59AD43" />
<rect x="22" y="18" width="1" height="1" fill="#59AD43" />
<rect x="23" y="18" width="1" height="1" fill="#59AD43" />
<rect x="15" y="19" width="1" height="1" fill="#59AD43" />
<rect x="16" y="19" width="1" height="1" fill="#59AD43" />
<rect x="17" y="19" width="1" height="1" fill="#59AD43" />
<rect x="18" y="19" width="1" height="1" fill="#59AD43" />
<rect x="19" y="19" width="1" height="1" fill="#59AD43" />
<rect x="20" y="19" width="1" height="1" fill="#59AD43" />
<rect x="21" y="19" width="1" height="1" fill="#59AD43" />
<rect x="22" y="19" width="1" height="1" fill="#59AD43" />
<rect x="23" y="19" width="1" height="1" fill="#59AD43" />
<rect x="15" y="20" width="1" height="1" fill="#59AD43" />
<rect x="16" y="20" width="1" height="1" fill="#59AD43" />
<rect x="17" y="20" width="1" height="1" fill="#59AD43" />
<rect x="18" y="20" width="1" height="1" fill="#59AD43" />
<rect x="19" y="20" width="1" height="1" fill="#59AD43" />
<rect x="20" y="20" width="1" height="1" fill="#59AD43" />
<rect x="21" y="20" width="1" height="1" fill="#59AD43" />
<rect x="22" y="20" width="1" height="1" fill="#59AD43" />
<rect x="23" y="20" width="1" height="1" fill="#59AD43" />
<rect x="15" y="21" width="1" height="1" fill="#59AD43" />
<rect x="16" y="21" width="1" height="1" fill="#59AD43" />
<rect x="17" y="21" width="1" height="1" fill="#59AD43" />
<rect x="18" y="21" width="1" height="1" fill="#59AD43" />
<rect x="19" y="21" width="1" height="1" fill="#59AD43" />
<rect x="20" y="21" width="1" height="1" fill="#59AD43" />
<rect x="21" y="21" width="1" height="1" fill="#59AD43" />
<rect x="22" y="21" width="1" height="1" fill="#59AD43" />
<rect x="23" y="21" width="1" height="1" fill="#59AD43" />
<rect x="15" y="22" width="1" height="1" fill="#59AD43" />
<rect x="16" y="22" width="1" height="1" fill="#59AD43" />
<rect x="17" y="22" width="1" height="1" fill="#59AD43" />
<rect x="18" y="22" width="1" height="1" fill="#59AD43" />
<rect x="19" y="22" width="1" height="1" fill="#59AD43" />
<rect x="20" y="22" width="1" height="1" fill="#59AD43" />
<rect x="21" y="22" width="1" height="1" fill="#59AD43" />
<rect x="22" y="22" width="1" height="1" fill="#59AD43" />
<rect x="23" y="22" width="1" height="1" fill="#59AD43" />
<rect x="15" y="23" width="1" height="1" fill="#59AD43" />
<rect x="16" y="23" width="1" height="1" fill="#59AD43" />
<rect x="17" y="23" width="1" height="1" fill="#59AD43" />
<rect x="18" y="23" width="1" height="1" fill="#59AD43" />
<rect x="19" y="23" width="1" height="1" fill="#59AD43" />
<rect x="20" y="23" width="1" height="1" fill="#59AD43" />
<rect x="21" y="23" width="1" height="1" fill="#59AD43" />
<rect x="22" y="23" width="1" height="1" fill="#59AD43" />
<rect x="23" y="23" width="1" height="1" fill="#59AD43" />
<rect x="15" y="24" width="1" height="1" fill="#59AD43" />
<rect x="16" y="24" width="1" height="1" fill="#59AD43" />
<rect x="17" y="24" width="1" height="1" fill="#59AD43" />
<rect x="18" y="24" width="1" height="1" fill="#59AD43" />
<rect x="19" y="24" width="1" height="1" fill="#59AD43" />
<rect x="20" y="24" width="1" height="1" fill="#59AD43" />
<rect x="21" y="24" width="1" height="1" fill="#59AD43" />
<rect x="22" y="24" width="1" height="1" fill="#59AD43" />
<rect x="23" y="24" width="1" height="1" fill="#59AD43" />
<rect x="15" y="25" width="1" height="1" fill="#59AD43" />
<rect x="16" y="25" width="1" height="1" fill="#59AD43" />
<rect x="17" y="25" width="1" height="1" fill="#59AD43" />
<rect x="18" y="25" width="1" height="1" fill="#59AD43" />
<rect x="19" y="25" width="1" height="1" fill="#59AD43" />
<rect x="20" y="25" width="1" height="1" fill="#59AD43" />
<rect x="21" y="25" width="1" height="1" fill="#59AD43" />
<rect x="22" y="25" width="1" height="1" fill="#59AD43" />
<rect x="23" y="25" width="1" height="1" fill="#59AD43" />
<rect x="15" y="26" width="1" height="1" fill="#59AD43" />
<rect x="16" y="26" width="1" height="1" fill="#59AD43" />
<rect x="17" y="26" width="1" height="1" fill="#59AD43" />
<rect x="18" y="26" width="1" height="1" fill="#59AD43" />
<rect x="19" y="26" width="1" height="1" fill="#59AD43" />
<rect x="20" y="26" width="1" height="1" fill="#59AD43" />
<rect x="21" y="26" width="1" height="1" fill="#59AD43" />
<rect x="22" y="26" width="1" height="1" fill="#59AD43" />
<rect x="23" y="26" width="1" height="1" fill="#59AD43" />
<rect x="15" y="27" width="1" height="1" fill="#59AD43" />
<rect x="16" y="27" width="1" height="1" fill="#59AD43" />
<rect x="17" y="27" width="1" height="1" fill="#59AD43" />
<rect x="18" y="27" width="1" height="1" fill="#59AD43" />
<rect x="19" y="27" width="1" height="1" fill="#59AD43" />
<rect x="20" y="27" width="1" height="1" fill="#59AD43" />
<rect x="21" y="27" width="1" height="1" fill="#59AD43" />
<rect x="22" y="27" width="1" height="1" fill="#59AD43" />
<rect x="23" y="27" width="1" height="1" fill="#59AD43" />
<rect x="15" y="28" width="1" height="1" fill="#59AD43" />
<rect x="16" y="28" width="1" height="1" fill="#59AD43" />
<rect x="17" y="28" width="1" height="1" fill="#59AD43" />
<rect x="18" y="28" width="1" height="1" fill="#59AD43" />
<rect x="19" y="28" width="1" height="1" fill="#59AD43" />
<rect x="20" y="28" width="1" height="1" fill="#59AD43" />
<rect x="21" y="28" width="1" height="1" fill="#59AD43" />
<rect x="22" y="28" width="1" height="1" fill="#59AD43" />
<rect x="23" y="28" width="1" height="1" fill="#59AD43" />
<rect x="15" y="29" width="1" height="1" fill="#59AD43" />
<rect x="16" y="29" width="1" height="1" fill="#59AD43" />
<rect x="17" y="29" width="1" height="1" fill="#59AD43" />
<rect x="18" y="29" width="1" height="1" fill="#59AD43" />
<rect x="19" y="29" width="1" height="1" fill="#59AD43" />
<rect x="20" y="29" width="1" height="1" fill="#59AD43" />
<rect x="21" y="29" width="1" height="1" fill="#59AD43" />
<rect x="22" y="29" width="1" height="1" fill="#59AD43" />
<rect x="23" y="29" width="1" height="1" fill="#59AD43" />
<rect x="15" y="30" width="1" height="1" fill="#59AD43" />
<rect x="16" y="30" width="1" height="1" fill="#59AD43" />
<rect x="17" y="30" width="1" height="1" fill="#59AD43" />
<rect x="18" y="30" width="1" height="1" fill="#59AD43" />
<rect x="19" y="30" width="1" height="1" fill="#59AD43" />
<rect x="20" y="30" width="1" height="1" fill="#59AD43" />
<rect x="21" y="30" width="1" height="1" fill="#59AD43" />
<rect x="22" y="30" width="1" height="1" fill="#59AD43" />
<rect x="23" y="30" width="1" height="1" fill="#59AD43" />
<rect x="15" y="31" width="1" height="1" fill="#59AD43" />
<rect x="16" y="31" width="1" height="1" fill="#59AD43" />
<rect x="17" y="31" width="1" height="1" fill="#59AD43" />
<rect x="18" y="31" width="1" height="1" fill="#59AD43" />
<rect x="19" y="31" width="1" height="1" fill="#59AD43" />
<rect x="20" y="31" width="1" height="1" fill="#59AD43" />
<rect x="21" y="31" width="1" height="1" fill="#59AD43" />
<rect x="22" y="31" width="1" height="1" fill="#59AD43" />
<rect x="23" y="31" width="1" height="1" fill="#59AD43" />
<rect x="15" y="32" width="1" height="1" fill="#59AD43" />
<rect x="16" y="32" width="1" height="1" fill="#59AD43" />
<rect x="17" y="32" width="1" height="1" fill="#59AD43" />
<rect x="18" y="32" width="1" height="1" fill="#59AD43" />
<rect x="19" y="32" width="1" height="1" fill="#59AD43" />
<rect x="20" y="32" width="1" height="1" fill="#59AD43" />
<rect x="21" y="32" width="1" height="1" fill="#59AD43" />
<rect x="22" y="32" width="1" height="1" fill="#59AD43" />
<rect x="23" y="32" width="1" height="1" fill="#59AD43" />
<rect x="15" y="33" width="1" height="1" fill="#59AD43" />
<rect x="16" y="33" width="1" height="1" fill="#59AD43" />
<rect x="17" y="33" width="1" height="1" fill="#59AD43" />
<rect x="18" y="33" width="1" height="1" fill="#59AD43" />
<rect x="19" y="33" width="1" height="1" fill="#59AD43" />
<rect x="20" y="33" width="1" height="1" fill="#59AD43" />
<rect x="21" y="33" width="1" height="1" fill="#59AD43" />
<rect x="22" y="33" width="1" height="1" fill="#59AD43" />
<rect x="23" y="33" width="1" height="1" fill="#59AD43" />
<rect x="15" y="34" width="1" height="1" fill="#59AD43" />
<rect x="16" y="34" width="1" height="1" fill="#59AD43" />
<rect x="17" y="34" width="1" height="1" fill="#59AD43" />
<rect x="18" y="34" width="1" height="1" fill="#59AD43" />
<rect x="19" y="34" width="1" height="1" fill="#59AD43" />
<rect x="20" y="34" width="1" height="1" fill="#59AD43" />
<rect x="21" y="34" width="1" height="1" fill="#59AD43" />
<rect x="22" y="34" width="1" height="1" fill="#59AD43" />
<rect x="23" y="34" width="1" height="1" fill="#59AD43" />
<rect x="15" y="35" width="1" height="1" fill="#59AD43" />
<rect x="16" y="35" width="1" height="1" fill="#59AD43" />
<rect x="17" y="35" width="1" height="1" fill="#59AD43" />
<rect x="18" y="35" width="1" height="1" fill="#59AD43" />
<rect x="19" y="35" width="1" height="1" fill="#59AD43" />
<rect x="20" y="35" width="1" height="1" fill="#59AD43" />
<rect x="21" y="35" width="1" height="1" fill="#59AD43" />
<rect x="22" y="35" width="1" height="1" fill="#59AD43" />
<rect x="23" y="35" width="1" height="1" fill="#59AD43" />
<rect x="15" y="36" width="1" height="1" fill="#59AD43" />
<rect x="16" y="36" width="1" height="1" fill="#59AD43" />
<rect x="17" y="36" width="1" height="1" fill="#59AD43" />
<rect x="18" y="36" width="1" height="1" fill="#59AD43" />
<rect x="19" y="36" width="1" height="1" fill="#59AD43" />
<rect x="20" y="36" width="1" height="1" fill="#59AD43" />
<rect x="21" y="36" width="1" height="1" fill="#59AD43" />
<rect x="22" y="36" width="1" height="1" fill="#59AD43" />
<rect x="23" y="36" width="1" height="1" fill="#59AD43" />
<rect x="15" y="37" width="1" height="1" fill="#59AD43" />
<rect x="16" y="37" width="1" height="1" fill="#59AD43" />
<rect x="17" y="37" width="1" height="1" fill="#59AD43" />
<rect x="18" y="37" width="1" height="1" fill="#59AD43" />
<rect x="19" y="37" width="1" height="1" fill="#59AD43" />
<rect x="20" y="37" width="1" height="1" fill="#59AD43" />
<rect x="21" y="37" width="1" height="1" fill="#59AD43" />
<rect x="22" y="37" width="1" height="1" fill="#59AD43" />
<rect x="23" y="37" width="1" height="1" fill="#59AD43" />
</svg>